<?xml version="1.0" standalone="no"?>
<!DOCTYPE svg PUBLIC "-//W3C//DTD SVG 20010904//EN"
 "http://www.w3.org/TR/2001/REC-SVG-20010904/DTD/svg10.dtd">
<svg version="1.0" xmlns="http://www.w3.org/2000/svg"
 width="100%" height="100%" viewBox="530 110 860 860"
 preserveAspectRatio="xMidYMid meet">

<g transform="translate(0.000000,1080.000000) scale(0.100000,-0.100000)"
fill="#31271c" stroke="none">
<path d="M9310 9245 c-401 -33 -741 -109 -1104 -250 -99 -38 -152 -62 -331
-145 -86 -41 -301 -167 -423 -249 -900 -603 -1508 -1565 -1667 -2636 -22 -146
-44 -435 -45 -565 0 -234 38 -574 91 -820 341 -1570 1629 -2771 3214 -2999
216 -31 287 -35 560 -35 374 0 609 29 945 114 539 136 1023 378 1470 734 161
128 458 426 586 586 470 590 736 1229 830 1997 21 168 24 657 6 803 -47 366
-91 568 -188 858 -402 1199 -1393 2137 -2614 2475 -448 125 -885 168 -1330
132z m590 -120 c768 -66 1446 -335 2040 -810 556 -444 983 -1056 1208 -1732
85 -254 122 -422 174 -788 17 -124 17 -647 0 -790 -32 -264 -92 -540 -167
-770 -51 -159 -144 -385 -160 -391 -13 -5 -156 43 -260 88 -631 273 -1264 794
-1926 1588 -161 192 -430 580 -557 801 -86 150 -182 348 -226 464 -21 55 -44
114 -51 130 l-14 30 0 -30 c-1 -34 26 -325 33 -370 3 -16 13 -75 22 -130 22
-143 52 -286 79 -390 13 -49 31 -115 39 -145 52 -196 177 -540 270 -745 404
-882 983 -1629 1754 -2264 l114 -94 -24 -22 c-281 -266 -524 -451 -790 -602
l-101 -57 -121 125 c-336 343 -619 774 -836 1274 -28 66 -58 134 -65 150 -56
128 -159 427 -220 640 -127 450 -209 865 -266 1355 -6 47 -15 123 -20 170 -6
49 -13 396 -15 813 l-5 727 481 0 480 0 0 205 0 205 -480 0 -480 0 0 465 0
465 -205 0 -205 0 0 -465 0 -465 -485 0 -485 0 0 -205 0 -205 485 0 485 0 0
-622 c0 -612 -7 -789 -40 -1055 -24 -200 -31 -246 -49 -373 -23 -150 -28 -179
-72 -400 -46 -228 -45 -222 -89 -394 -194 -766 -498 -1433 -889 -1951 -88
-116 -250 -302 -345 -395 l-66 -65 -58 30 c-236 124 -560 364 -774 573 l-86
85 111 90 c448 362 874 822 1216 1315 78 113 271 417 271 427 0 2 20 36 43 77
60 101 193 369 255 513 145 341 241 634 312 955 58 266 105 607 98 720 l-3 55
-40 -110 c-169 -463 -589 -1102 -1081 -1640 -604 -661 -1231 -1120 -1792
-1311 -70 -23 -115 -34 -121 -28 -12 12 -91 205 -131 319 -307 881 -273 1850
95 2710 135 317 338 646 563 917 104 125 344 366 467 470 752 631 1741 947
2705 863z m-740 -2513 c-47 -163 -110 -361 -143 -447 -9 -22 -30 -78 -47 -125
-18 -47 -38 -98 -45 -115 -7 -16 -28 -64 -45 -105 -18 -41 -41 -95 -52 -120
-27 -61 -170 -345 -198 -395 -13 -22 -34 -60 -48 -85 -289 -516 -730 -1044
-1210 -1449 -264 -221 -772 -575 -801 -556 -9 5 -71 92 -94 132 -5 7 32 33
100 71 671 375 1233 884 1685 1527 314 448 627 1047 876 1677 36 92 67 166 69
165 2 -2 -19 -81 -47 -175z m915 -7 c231 -581 502 -1111 781 -1526 403 -601
839 -1045 1404 -1431 129 -88 353 -225 428 -261 23 -12 42 -25 42 -30 0 -7
-20 -38 -92 -141 -18 -26 -519 321 -798 553 -236 197 -628 602 -775 801 -11
15 -47 63 -79 106 -259 342 -508 780 -681 1194 -26 63 -53 129 -60 145 -72
170 -270 796 -242 765 2 -3 35 -81 72 -175z m-446 -1530 c6 -104 16 -246 21
-315 5 -69 14 -188 20 -265 10 -143 16 -205 51 -615 24 -279 39 -432 74 -765
30 -275 37 -341 81 -685 38 -306 55 -431 83 -620 10 -69 16 -127 14 -130 -21
-24 -714 -23 -737 1 -5 5 1 63 24 224 22 155 49 352 71 530 5 44 14 112 18
150 8 64 34 290 61 535 6 52 15 131 20 175 5 44 16 157 25 250 8 94 19 217 25
275 10 108 21 240 40 460 11 138 33 458 50 735 6 99 15 241 20 315 6 75 11
147 11 160 2 25 8 -61 28 -415z"/>
</g>
</svg>
